<svg width="234" height="257" viewBox="0 0 234 257" fill="none" xmlns="http://www.w3.org/2000/svg">
<path fill-rule="evenodd" clip-rule="evenodd" d="M139.692 5.17415C138.922 2.29615 136.414 0.202688 133.437 0.100325C131.95 0.0492061 130.457 0.0234375 128.957 0.0234375C58.2367 0.0234375 0.90625 57.3539 0.90625 128.075C0.90625 198.795 58.2367 256.126 128.957 256.126C171.448 256.126 209.105 235.43 232.398 203.57C234.678 200.45 233.817 196.109 230.645 193.902C227.324 191.592 222.765 192.51 220.355 195.759C199.634 223.694 166.41 241.798 128.958 241.798C66.1496 241.798 15.2336 190.883 15.2336 128.075C15.2336 65.2666 66.1496 14.3507 128.958 14.3507C130.001 14.3507 131.041 14.3648 132.078 14.3927C137.019 14.5258 140.969 9.94872 139.692 5.17415Z" fill="#604CDA"/>
</svg>
