<svg width="140" height="257" viewBox="0 0 140 257" fill="none" xmlns="http://www.w3.org/2000/svg">
<path fill-rule="evenodd" clip-rule="evenodd" d="M128.957 7.188C128.957 3.23162 125.744 0.00350942 121.793 0.221354C54.4053 3.93749 0.90625 59.7588 0.90625 128.075C0.90625 198.796 58.2367 256.127 128.957 256.127C130.344 256.127 131.725 256.105 133.1 256.061C137.842 255.91 140.84 251.103 139.206 246.649C138.088 243.599 135.083 241.683 131.835 241.764C130.879 241.787 129.92 241.799 128.958 241.799C66.1496 241.799 15.2336 190.883 15.2336 128.075C15.2336 67.6742 62.3223 18.2711 121.792 14.5737C125.741 14.3282 128.957 11.1444 128.957 7.188Z" fill="#604CDA"/>
</svg>
