<svg width="105" height="120" viewBox="0 0 105 120" fill="none" xmlns="http://www.w3.org/2000/svg">
<g opacity="0.7" filter="url(#filter0_d)">
<path d="M30.5625 33.0273C30.5625 31.3705 31.9056 30.0273 33.5625 30.0273L71.2646 30.0274C72.9215 30.0274 74.2646 31.3705 74.2646 33.0274V71.8047C74.2646 73.4207 73.4837 74.937 72.1681 75.8754L54.3773 88.5648C52.5682 89.8552 50.1244 89.7967 48.379 88.4212L32.4676 75.8814C31.2646 74.9333 30.5625 73.4861 30.5625 71.9543V33.0273Z" fill="#6D28FE"/>
</g>
<path d="M61.976 57.9582C61.9732 57.9492 61.97 57.9403 61.9663 57.9316C61.9663 57.9279 61.9642 57.9236 61.9624 57.9199C61.9458 57.8895 61.9244 57.8617 61.8988 57.8375C61.8931 57.8317 61.886 57.8277 61.8799 57.8223C61.8552 57.8017 61.8277 57.7843 61.7981 57.7705C61.7874 57.7658 61.7774 57.7611 61.7663 57.7574C61.7269 57.7427 61.6851 57.7347 61.6427 57.7339H46.9575L46.8635 57.6235L51.4714 56.2611L51.5274 56.2446L51.6099 56.2204L56.0385 54.9107L56.9781 54.6329L58.3688 54.2219L61.7499 53.2226C61.9381 53.1669 62.0426 52.9781 61.9835 52.8009V52.8009L61.1278 50.2337C61.1256 50.2276 61.1206 50.2236 61.1181 50.2175C61.1063 50.1879 61.0901 50.16 61.0699 50.1348C61.0635 50.1267 61.0585 50.118 61.0513 50.1106C61.049 50.1073 61.0465 50.1041 61.0438 50.1011C61.0188 50.0769 60.9899 50.0565 60.9581 50.0406C60.9499 50.0362 60.9406 50.0342 60.932 50.0305C60.9029 50.0182 60.8722 50.0094 60.8406 50.0046C60.8285 50.0029 60.8174 50.0016 60.8049 50.0009C60.7626 49.9979 60.7202 50.0023 60.6795 50.0137L50.6996 52.964L49.776 53.2371L48.1903 53.706L43.6671 55.0432H42.3571C42.1599 55.0432 42 55.1938 42 55.3795V69.1692C42 69.7264 42.4797 70.1782 43.0714 70.1782H60.9285C61.5202 70.1782 61.9999 69.7264 61.9999 69.1692V58.0702C61.9999 58.0638 61.9963 58.0584 61.996 58.052C61.9941 58.02 61.9873 57.9884 61.976 57.9582ZM60.9285 58.4065L59.3213 60.4245H57.3571L58.9642 58.4065H60.9285ZM58.0713 58.4065L56.4642 60.4245H54.4999L56.1071 58.4065H58.0713ZM55.2142 58.4065L53.6071 60.4245H51.6428L53.2499 58.4065H55.2142ZM52.3571 58.4065L50.75 60.4245H48.7857L50.3928 58.4065H52.3571ZM49.5 58.4065L47.8928 60.4245H47.7143V58.7429C47.7143 58.6665 47.6867 58.5923 47.636 58.5327L47.5325 58.4109L49.5 58.4065ZM60.767 51.399L61.1956 52.6828L60.1728 52.9849L60.767 51.399ZM58.9113 51.242L60.2142 50.8572L59.3213 53.2354L58.1324 53.5869L57.4471 53.7887L58.3399 51.4101L58.9113 51.242ZM55.8428 52.1494L57.4863 51.6631L56.5935 54.0416L54.7196 54.5956L55.6124 52.2167L55.8428 52.1494ZM54.7617 52.4689L53.8689 54.8471L51.9953 55.4011L52.8882 53.0229L54.7617 52.4689ZM50.1617 53.8297L52.0357 53.2748L51.1428 55.6543L49.2689 56.2083L50.1617 53.8297ZM49.3117 54.0796L48.4189 56.4578L47.2646 56.7995L46.545 57.0121L47.4378 54.6336L49.3117 54.0796ZM46.5825 54.8865L45.9568 56.5567L44.9489 55.3695L46.5825 54.8865ZM42.7143 55.7159H44.3286L45.9796 57.6599L46.506 58.2791L46.756 58.5744L46.7993 58.6251L46.9978 58.8586V60.4245H42.7143V55.7159ZM61.2856 69.1692C61.2856 69.3549 61.1257 69.5055 60.9285 69.5055H43.0714C42.8742 69.5055 42.7143 69.3549 42.7143 69.1692V61.0972H61.2856V69.1692ZM61.2856 60.4245H60.2142L61.2856 59.0792V60.4245Z" fill="white"/>
<path d="M54.6212 64.9656C54.5693 64.8675 54.4849 64.788 54.3807 64.7391L50.0954 62.7213C49.8308 62.5968 49.5091 62.6978 49.3768 62.947C49.3396 63.0171 49.3203 63.0944 49.3203 63.1728V67.2085C49.3202 67.4871 49.5599 67.713 49.8557 67.7132C49.9389 67.7132 50.021 67.695 50.0954 67.66L54.3807 65.6421C54.6455 65.5179 54.7532 65.2149 54.6212 64.9656ZM50.3917 66.3922V63.989L52.9436 65.1906L50.3917 66.3922Z" fill="white"/>
<defs>
<filter id="filter0_d" x="0.5625" y="0.0273438" width="103.702" height="119.467" filterUnits="userSpaceOnUse" color-interpolation-filters="sRGB">
<feFlood flood-opacity="0" result="BackgroundImageFix"/>
<feColorMatrix in="SourceAlpha" type="matrix" values="0 0 0 0 0 0 0 0 0 0 0 0 0 0 0 0 0 0 127 0"/>
<feOffset/>
<feGaussianBlur stdDeviation="15"/>
<feColorMatrix type="matrix" values="0 0 0 0 0 0 0 0 0 0 0 0 0 0 0 0 0 0 0.25 0"/>
<feBlend mode="normal" in2="BackgroundImageFix" result="effect1_dropShadow"/>
<feBlend mode="normal" in="SourceGraphic" in2="effect1_dropShadow" result="shape"/>
</filter>
</defs>
</svg>
