<svg width="105" height="120" viewBox="0 0 105 120" fill="none" xmlns="http://www.w3.org/2000/svg">
<g opacity="0.7" filter="url(#filter0_d)">
<path d="M30.5659 33.0273C30.5659 31.3705 31.9091 30.0273 33.5659 30.0273L71.2681 30.0274C72.9249 30.0274 74.2681 31.3705 74.2681 33.0274V71.8047C74.2681 73.4207 73.4871 74.937 72.1715 75.8754L54.3808 88.5648C52.5716 89.8552 50.1278 89.7967 48.3824 88.4212L32.471 75.8814C31.268 74.9333 30.5659 73.4861 30.5659 71.9543V33.0273Z" fill="#6D28FE"/>
</g>
<g clip-path="url(#clip0)">
<path d="M52.5034 73C51.9461 73 51.4927 72.5466 51.4927 71.9893C51.4927 71.9713 51.4932 71.9535 51.4941 71.9358L45.8374 69.5928C45.6522 69.7984 45.3842 69.9278 45.0864 69.9278C44.5291 69.9278 44.0756 69.4743 44.0756 68.917C44.0756 68.3597 44.5291 67.9063 45.0864 67.9063C45.6437 67.9063 46.0971 68.3597 46.0971 68.917C46.0971 68.935 46.0966 68.9528 46.0957 68.9705L51.7524 71.3135C51.9375 71.1079 52.2056 70.9785 52.5034 70.9785C52.8012 70.9785 53.0693 71.1079 53.2544 71.3135L58.9111 68.9705C58.9102 68.9527 58.9097 68.935 58.9097 68.917C58.9097 68.3597 59.3632 67.9063 59.9205 67.9063C60.4778 67.9063 60.9312 68.3597 60.9312 68.917C60.9312 69.4743 60.4778 69.9278 59.9205 69.9278C59.6227 69.9278 59.3546 69.7984 59.1695 69.5928L53.5128 71.9358C53.5137 71.9536 53.5142 71.9713 53.5142 71.9893C53.5142 72.5466 53.0607 73 52.5034 73ZM52.5034 71.6523C52.3176 71.6523 52.1665 71.8035 52.1665 71.9893C52.1665 72.1751 52.3176 72.3262 52.5034 72.3262C52.6892 72.3262 52.8403 72.1751 52.8403 71.9893C52.8403 71.8035 52.6892 71.6523 52.5034 71.6523ZM59.9204 68.5801C59.7346 68.5801 59.5835 68.7312 59.5835 68.917C59.5835 69.1028 59.7346 69.2539 59.9204 69.2539C60.1062 69.2539 60.2573 69.1028 60.2573 68.917C60.2573 68.7312 60.1062 68.5801 59.9204 68.5801ZM45.0864 68.5801C44.9006 68.5801 44.7495 68.7312 44.7495 68.917C44.7495 69.1028 44.9006 69.2539 45.0864 69.2539C45.2722 69.2539 45.4233 69.1028 45.4233 68.917C45.4233 68.7312 45.2722 68.5801 45.0864 68.5801ZM52.5034 68.957C48.3916 68.957 45.0464 65.6118 45.0464 61.5C45.0464 57.3882 48.3916 54.043 52.5034 54.043C53.9611 54.043 55.3732 54.4636 56.587 55.2595C56.7426 55.3615 56.786 55.5704 56.684 55.726C56.582 55.8817 56.373 55.925 56.2175 55.823C55.8368 55.5735 55.4347 55.3645 55.0169 55.1977C55.3191 55.5048 55.6007 55.8701 55.8564 56.2901C56.0156 56.5515 56.1615 56.8291 56.2934 57.1201H57.6847C57.5175 56.9235 57.3381 56.735 57.1468 56.5552C57.0111 56.4278 57.0045 56.2146 57.1319 56.079C57.2593 55.9433 57.4726 55.9367 57.6082 56.0641C59.1031 57.4684 59.9604 59.4497 59.9604 61.5C59.9604 65.6118 56.6153 68.957 52.5034 68.957ZM52.8403 65.8799V68.259C53.7517 68.1275 54.6081 67.4647 55.2809 66.3595C55.3747 66.2055 55.4634 66.0456 55.5469 65.8799H52.8403ZM49.46 65.8799C49.5435 66.0456 49.6321 66.2055 49.7259 66.3595C50.3988 67.4647 51.2552 68.1275 52.1665 68.259V65.8799H49.46ZM56.2934 65.8799C56.1615 66.1709 56.0157 66.4484 55.8565 66.7099C55.6015 67.1286 55.3209 67.493 55.0197 67.7994C56.0564 67.3837 56.968 66.7189 57.6791 65.8799H56.2934V65.8799ZM47.3277 65.8799C48.0388 66.7189 48.9504 67.3837 49.9871 67.7994C49.6859 67.4929 49.4052 67.1285 49.1503 66.7099C48.9911 66.4484 48.8453 66.1709 48.7134 65.8798H47.3277V65.8799ZM56.5652 65.2061H58.1824C58.8227 64.2282 59.2174 63.0756 59.2784 61.8369H57.1707C57.1378 63.0364 56.9292 64.1861 56.5652 65.2061ZM52.8403 65.2061H55.8465C56.237 64.2048 56.4615 63.0506 56.4967 61.8369H52.8403V65.2061ZM49.1603 65.2061H52.1665V61.8369H48.5102C48.5453 63.0506 48.7698 64.2048 49.1603 65.2061ZM46.8244 65.2061H48.4416C48.0776 64.1861 47.8691 63.0364 47.8361 61.8369H45.7285C45.7894 63.0756 46.1842 64.2282 46.8244 65.2061ZM57.1707 61.1631H59.2785C59.22 59.9448 58.8441 58.7922 58.1894 57.7939H56.5652C56.9292 58.8139 57.1378 59.9636 57.1707 61.1631ZM52.8403 61.1631H56.4967C56.4616 59.9494 56.2371 58.7952 55.8465 57.7939H52.8403V58.5801C52.8403 58.7662 52.6895 58.917 52.5034 58.917C52.3173 58.917 52.1665 58.7662 52.1665 58.5801V57.7939H49.1603C48.7698 58.7952 48.5453 59.9494 48.5102 61.1631H52.1665V59.9277C52.1665 59.7416 52.3173 59.5908 52.5034 59.5908C52.6895 59.5908 52.8403 59.7416 52.8403 59.9277V61.1631ZM45.7285 61.1631H47.8361C47.8691 59.9636 48.0777 58.8139 48.4416 57.7939H46.8244C46.1842 58.7718 45.7894 59.9244 45.7285 61.1631ZM52.8403 57.1201H55.5469C55.4634 56.9544 55.3747 56.7945 55.2809 56.6405C54.6081 55.5353 53.7517 54.8725 52.8403 54.741V57.1201ZM49.46 57.1201H52.1665V54.741C51.2552 54.8725 50.3988 55.5353 49.7259 56.6405C49.6321 56.7945 49.5435 56.9544 49.46 57.1201ZM47.3277 57.1201H48.7134C48.8453 56.8291 48.9912 56.5516 49.1504 56.2901C49.4053 55.8714 49.686 55.507 49.9871 55.2006C48.9504 55.6163 48.0388 56.2811 47.3277 57.1201ZM60.6467 67.5003C60.6037 67.5003 60.5601 67.492 60.5179 67.4746C60.346 67.4034 60.2643 67.2063 60.3356 67.0344L62.3169 62.251C62.1114 62.0659 61.9819 61.7978 61.9819 61.5C61.9819 61.2022 62.1114 60.9341 62.3169 60.749L59.9739 55.0923C59.9561 55.0932 59.9384 55.0937 59.9205 55.0937C59.3632 55.0937 58.9097 54.6403 58.9097 54.0829C58.9097 53.5256 59.3632 53.0722 59.9205 53.0722C60.4778 53.0722 60.9312 53.5256 60.9312 54.0829C60.9312 54.3807 60.8018 54.6488 60.5962 54.834L62.9393 60.4907C62.957 60.4897 62.9748 60.4893 62.9927 60.4893C63.55 60.4893 64.0034 60.9427 64.0034 61.5C64.0034 62.0573 63.55 62.5107 62.9927 62.5107C62.9748 62.5107 62.957 62.5102 62.9393 62.5093L60.9581 67.2922C60.9044 67.422 60.7789 67.5003 60.6467 67.5003ZM62.9927 61.1631C62.8069 61.1631 62.6558 61.3142 62.6558 61.5C62.6558 61.6858 62.8069 61.8369 62.9927 61.8369C63.1785 61.8369 63.3296 61.6858 63.3296 61.5C63.3296 61.3142 63.1785 61.1631 62.9927 61.1631ZM59.9204 53.7461C59.7346 53.7461 59.5835 53.8972 59.5835 54.083C59.5835 54.2688 59.7346 54.4199 59.9204 54.4199C60.1062 54.4199 60.2573 54.2688 60.2573 54.083C60.2573 53.8972 60.1062 53.7461 59.9204 53.7461ZM44.3601 67.5003C44.2279 67.5003 44.1025 67.422 44.0487 67.2922L42.0676 62.5093C42.0498 62.5103 42.0321 62.5107 42.0142 62.5107C41.4569 62.5107 41.0034 62.0573 41.0034 61.5C41.0034 60.9427 41.4569 60.4893 42.0142 60.4893C42.0321 60.4893 42.0499 60.4898 42.0676 60.4907L44.4106 54.834C44.205 54.6488 44.0756 54.3807 44.0756 54.0829C44.0756 53.5256 44.5291 53.0722 45.0864 53.0722C45.3842 53.0722 45.6522 53.2016 45.8374 53.4072L51.4941 51.0642C51.4931 51.0464 51.4927 51.0287 51.4927 51.0107C51.4927 50.4534 51.9461 50 52.5034 50C53.0607 50 53.5142 50.4534 53.5142 51.0107C53.5142 51.0287 53.5137 51.0465 53.5128 51.0642L58.3023 53.048C58.4742 53.1192 58.5559 53.3163 58.4846 53.4882C58.4134 53.6601 58.2163 53.7419 58.0444 53.6706L53.2544 51.6865C53.0693 51.892 52.8012 52.0215 52.5034 52.0215C52.2056 52.0215 51.9375 51.8921 51.7524 51.6865L46.0957 54.0295C46.0967 54.0473 46.0971 54.065 46.0971 54.0829C46.0971 54.6403 45.6437 55.0937 45.0864 55.0937C45.0684 55.0937 45.0507 55.0932 45.033 55.0923L42.6899 60.749C42.8955 60.9341 43.0249 61.2022 43.0249 61.5C43.0249 61.7978 42.8955 62.0659 42.6899 62.251L44.6712 67.0344C44.7424 67.2063 44.6608 67.4034 44.4889 67.4746C44.4467 67.492 44.4031 67.5003 44.3601 67.5003ZM42.0142 61.1631C41.8284 61.1631 41.6772 61.3142 41.6772 61.5C41.6772 61.6858 41.8284 61.8369 42.0142 61.8369C42.2 61.8369 42.3511 61.6858 42.3511 61.5C42.3511 61.3142 42.2 61.1631 42.0142 61.1631ZM45.0864 53.7461C44.9006 53.7461 44.7495 53.8972 44.7495 54.083C44.7495 54.2688 44.9006 54.4199 45.0864 54.4199C45.2722 54.4199 45.4233 54.2688 45.4233 54.083C45.4233 53.8972 45.2722 53.7461 45.0864 53.7461ZM52.5034 50.6738C52.3176 50.6738 52.1665 50.8249 52.1665 51.0107C52.1665 51.1965 52.3176 51.3477 52.5034 51.3477C52.6892 51.3477 52.8403 51.1965 52.8403 51.0107C52.8403 50.8249 52.6892 50.6738 52.5034 50.6738Z" fill="white"/>
</g>
<defs>
<filter id="filter0_d" x="0.565918" y="0.0273438" width="103.702" height="119.467" filterUnits="userSpaceOnUse" color-interpolation-filters="sRGB">
<feFlood flood-opacity="0" result="BackgroundImageFix"/>
<feColorMatrix in="SourceAlpha" type="matrix" values="0 0 0 0 0 0 0 0 0 0 0 0 0 0 0 0 0 0 127 0"/>
<feOffset/>
<feGaussianBlur stdDeviation="15"/>
<feColorMatrix type="matrix" values="0 0 0 0 0 0 0 0 0 0 0 0 0 0 0 0 0 0 0.25 0"/>
<feBlend mode="normal" in2="BackgroundImageFix" result="effect1_dropShadow"/>
<feBlend mode="normal" in="SourceGraphic" in2="effect1_dropShadow" result="shape"/>
</filter>
<clipPath id="clip0">
<rect width="23" height="23" fill="white" transform="translate(41.0034 50)"/>
</clipPath>
</defs>
</svg>
